<?xml version="1.0" encoding="UTF-8" standalone="no"?>
<svg
   width="57.741001"
   height="90"
   viewBox="0 0 57.741001 90"
   fill="none"
   version="1.1"
   id="svg4"
   sodipodi:docname="logo-vector.svg"
   inkscape:version="1.1.1 (c3084ef, 2021-09-22)"
   xmlns:inkscape="http://www.inkscape.org/namespaces/inkscape"
   xmlns:sodipodi="http://sodipodi.sourceforge.net/DTD/sodipodi-0.dtd"
   xmlns="http://www.w3.org/2000/svg"
   xmlns:svg="http://www.w3.org/2000/svg">
  <defs
     id="defs8" />
  <sodipodi:namedview
     id="namedview6"
     pagecolor="#ffffff"
     bordercolor="#666666"
     borderopacity="1.0"
     inkscape:pageshadow="2"
     inkscape:pageopacity="0.0"
     inkscape:pagecheckerboard="0"
     showgrid="false"
     width="41px"
     inkscape:zoom="23.966667"
     inkscape:cx="7.4478442"
     inkscape:cy="17.253129"
     inkscape:window-width="1296"
     inkscape:window-height="969"
     inkscape:window-x="0"
     inkscape:window-y="25"
     inkscape:window-maximized="0"
     inkscape:current-layer="svg4" />
  <path
     d="m 30.03556,9.1527999 c 4.191214,0 7.58887,3.3976501 7.58887,7.5889811 0,4.19109 -3.397656,7.588771 -7.58887,7.588771 -4.191313,0 -7.588873,-3.397681 -7.588873,-7.588771 0,-4.191331 3.39756,-7.5889811 7.588873,-7.5889811 M 46.76889,18.577721 C 47.589057,12.67867 44.939265,5.9908289 39.797234,2.7100589 32.95174,-1.7063321 23.929566,-0.5075921 18.408968,4.7289689 12.194359,10.59652 11.658118,18.356831 16.232285,26.558832 c 1.230357,2.618281 1.072584,4.889611 0.2523,7.160941 -1.387923,3.911761 -5.646649,6.530041 -8.8644044,10.031612 C -1.8752131,54.066946 -2.8530513,70.313091 6.7053665,80.944223 22.701846,98.627638 52.07143,88.331028 55.985132,67.964871 57.846377,58.248677 51.820237,55.737496 56.993774,45.958155 57.75092,44.507115 58.35029,41.920244 56.615204,41.478644 49.76971,39.838214 43.407828,46.191105 42.230196,52.015006 37.616969,74.831182 22.414857,66.325551 23.929554,58.483367 26.039535,47.559345 45.03318,30.523123 46.768878,18.577721"
     style="fill:#ffffff;fill-opacity:1;fill-rule:evenodd;stroke:none;stroke-width:0.101986"
     id="path1596-6" />
</svg>
