<?xml version="1.0" encoding="UTF-8" standalone="no"?>
<svg
   width="26.945999"
   height="42"
   viewBox="0 0 26.945999 42"
   fill="none"
   version="1.1"
   id="svg6088"
   sodipodi:docname="logo-vector-blue.svg"
   inkscape:version="1.1.1 (c3084ef, 2021-09-22)"
   xmlns:inkscape="http://www.inkscape.org/namespaces/inkscape"
   xmlns:sodipodi="http://sodipodi.sourceforge.net/DTD/sodipodi-0.dtd"
   xmlns="http://www.w3.org/2000/svg"
   xmlns:svg="http://www.w3.org/2000/svg">
  <defs
     id="defs6092" />
  <sodipodi:namedview
     id="namedview6090"
     pagecolor="#ffffff"
     bordercolor="#666666"
     borderopacity="1.0"
     inkscape:pageshadow="2"
     inkscape:pageopacity="0.0"
     inkscape:pagecheckerboard="0"
     showgrid="false"
     inkscape:zoom="23.966667"
     inkscape:cx="10.493741"
     inkscape:cy="26.265647"
     inkscape:window-width="1680"
     inkscape:window-height="997"
     inkscape:window-x="0"
     inkscape:window-y="25"
     inkscape:window-maximized="1"
     inkscape:current-layer="svg6088" />
  <path
     d="m 14.016595,4.2713068 c 1.955899,0 3.541472,1.58557 3.541472,3.541524 0,1.955842 -1.585573,3.5414272 -3.541472,3.5414272 -1.955946,0 -3.541475,-1.5855852 -3.541475,-3.5414272 0,-1.955954 1.585529,-3.541524 3.541475,-3.541524 m 7.808887,4.398296 c 0.382745,-2.75289 -0.853825,-5.873883 -3.253439,-7.404909 -3.194564,-2.06098199 -7.404912,-1.50156999 -9.9811911,0.942158 -2.9001508,2.738191 -3.1503967,6.359669 -1.0157856,10.1872702 0.5741667,1.221864 0.5005393,2.281818 0.11774,3.341772 -0.6476975,1.825489 -2.6351027,3.047353 -4.1367219,4.681419 -4.43118383,4.813929 -4.8875083,12.395463 -0.4269133,17.356658 7.4650239,8.252259 21.1708299,3.447177 22.9972239,-6.057031 0.868581,-4.534224 -1.943618,-5.706108 0.4707,-10.269801 0.353334,-0.677152 0.63304,-1.884358 -0.176666,-2.090438 -3.194564,-0.765534 -6.163443,2.199148 -6.713004,4.916969 -2.152839,10.647548 -9.247159,6.678254 -8.5403,3.018568 0.984658,-5.097877 9.848359,-13.048114 10.658352,-18.6226352"
     style="fill:#0010f7;fill-opacity:1;fill-rule:evenodd;stroke:none;stroke-width:0.0475933"
     id="path1596-6" />
</svg>
