<?xml version="1.0" encoding="UTF-8" standalone="no"?>
<svg
   width="40"
   height="40"
   viewBox="0 0 40 40"
   fill="none"
   version="1.1"
   id="svg899"
   sodipodi:docname="logo-small.svg"
   inkscape:version="1.1.1 (c3084ef, 2021-09-22)"
   xmlns:inkscape="http://www.inkscape.org/namespaces/inkscape"
   xmlns:sodipodi="http://sodipodi.sourceforge.net/DTD/sodipodi-0.dtd"
   xmlns="http://www.w3.org/2000/svg"
   xmlns:svg="http://www.w3.org/2000/svg">
  <defs
     id="defs903">
    <clipPath
       clipPathUnits="userSpaceOnUse"
       id="clipPath1576">
      <path
         d="M 0,1200 H 1200 V 0 H 0 Z"
         id="path1574" />
    </clipPath>
  </defs>
  <sodipodi:namedview
     id="namedview901"
     pagecolor="#ffffff"
     bordercolor="#666666"
     borderopacity="1.0"
     inkscape:pageshadow="2"
     inkscape:pageopacity="0.0"
     inkscape:pagecheckerboard="0"
     showgrid="false"
     inkscape:snap-bbox="true"
     inkscape:snap-bbox-midpoints="true"
     inkscape:zoom="7.3789602"
     inkscape:cx="32.728188"
     inkscape:cy="25.003523"
     inkscape:window-width="1680"
     inkscape:window-height="997"
     inkscape:window-x="0"
     inkscape:window-y="25"
     inkscape:window-maximized="1"
     inkscape:current-layer="svg899"
     inkscape:snap-bbox-edge-midpoints="true" />
  <rect
     width="40"
     height="40"
     rx="7"
     fill="#0010F7"
     id="rect895" />
  <path
     d="m 20.388372,8.050935 c 1.397071,0 2.529623,1.13255 2.529623,2.52966 0,1.39703 -1.132552,2.52959 -2.529623,2.52959 -1.397104,0 -2.529624,-1.13256 -2.529624,-2.52959 0,-1.39711 1.13252,-2.52966 2.529624,-2.52966 m 5.577776,3.14164 c 0.273389,-1.96635 -0.609875,-4.19563 -2.323885,-5.28922 -2.281831,-1.47213 -5.289222,-1.07255 -7.129421,0.67297 -2.071536,1.95585 -2.250283,4.54262 -0.725561,7.27662 0.410119,0.87276 0.357528,1.62987 0.0841,2.38698 -0.462641,1.30392 -1.882216,2.17668 -2.954801,3.34387 -3.1651308,3.43852 -3.4910768,8.853901 -0.304938,12.397611 5.332159,5.89447 15.122019,2.462269 16.426586,-4.32645 0.620415,-3.238731 -1.388298,-4.075791 0.336214,-7.335571 0.252382,-0.48368 0.452172,-1.34597 -0.12619,-1.49317 -2.281831,-0.54681 -4.402458,1.57082 -4.795002,3.51212 -1.537742,7.605391 -6.605112,4.770181 -6.100213,2.15612 0.703327,-3.64134 7.034541,-9.32008 7.613107,-13.30188"
     style="fill:#ffffff;fill-opacity:1;fill-rule:evenodd;stroke:none;stroke-width:0.0339952"
     id="path1596-6" />
</svg>
