<?xml version="1.0" encoding="UTF-8" standalone="no"?>
<svg
   width="145"
   height="40"
   viewBox="0 0 145 40"
   fill="none"
   version="1.1"
   id="svg2138"
   sodipodi:docname="logo-dark.svg"
   inkscape:version="1.1.1 (c3084ef, 2021-09-22)"
   xmlns:inkscape="http://www.inkscape.org/namespaces/inkscape"
   xmlns:sodipodi="http://sodipodi.sourceforge.net/DTD/sodipodi-0.dtd"
   xmlns="http://www.w3.org/2000/svg"
   xmlns:svg="http://www.w3.org/2000/svg">
  <defs
     id="defs2142" />
  <sodipodi:namedview
     id="namedview2140"
     pagecolor="#ffffff"
     bordercolor="#666666"
     borderopacity="1.0"
     inkscape:pageshadow="2"
     inkscape:pageopacity="0.0"
     inkscape:pagecheckerboard="0"
     showgrid="false"
     inkscape:snap-center="true"
     inkscape:snap-bbox="true"
     inkscape:snap-bbox-midpoints="true"
     inkscape:zoom="3.2159871"
     inkscape:cx="134.79532"
     inkscape:cy="41.822307"
     inkscape:window-width="1296"
     inkscape:window-height="969"
     inkscape:window-x="0"
     inkscape:window-y="25"
     inkscape:window-maximized="0"
     inkscape:current-layer="svg2138"
     showguides="false"
     inkscape:bbox-nodes="true"
     width="150px" />
  <rect
     width="40"
     height="40"
     rx="7"
     fill="#0010f7"
     id="rect2132"
     x="0"
     y="0" />
  <path
     d="m 20.388372,8.0509349 c 1.397071,0 2.529623,1.13255 2.529623,2.5296601 0,1.39703 -1.132552,2.52959 -2.529623,2.52959 -1.397104,0 -2.529624,-1.13256 -2.529624,-2.52959 0,-1.3971101 1.13252,-2.5296601 2.529624,-2.5296601 m 5.577776,3.1416401 c 0.273389,-1.9663501 -0.609875,-4.1956301 -2.323885,-5.2892201 -2.281831,-1.47213 -5.289222,-1.07255 -7.129421,0.67297 -2.071536,1.95585 -2.250283,4.5426201 -0.725561,7.2766201 0.410119,0.87276 0.357528,1.62987 0.0841,2.38698 -0.462641,1.30392 -1.882216,2.17668 -2.954801,3.34387 -3.1651308,3.43852 -3.4910768,8.853901 -0.304938,12.397611 5.332159,5.89447 15.122019,2.462269 16.426586,-4.32645 0.620415,-3.238731 -1.388298,-4.075791 0.336214,-7.335571 0.252382,-0.48368 0.452172,-1.34597 -0.12619,-1.49317 -2.281831,-0.54681 -4.402458,1.57082 -4.795002,3.51212 -1.537742,7.605391 -6.605112,4.770181 -6.100213,2.15612 0.703327,-3.64134 7.034541,-9.32008 7.613107,-13.30188"
     style="fill:#ffffff;fill-opacity:1;fill-rule:evenodd;stroke:none;stroke-width:0.0339952"
     id="path1596-6" />
  <g
     aria-label="HOOKS"
     id="text2395"
     style="font-weight:bold;font-size:24px;line-height:1.25;font-family:Kailasa;-inkscape-font-specification:'Kailasa Bold';letter-spacing:0px;fill:#ffffff">
    <path
       d="m 63.644531,29.172501 h -4.5 v -7.6875 H 52.5 v 7.6875 H 48 V 11.723282 h 4.5 v 6.386719 h 6.644531 v -6.386719 h 4.5 z"
       id="path824" />
    <path
       d="m 85.078125,20.453751 q 0,4.171875 -2.390625,6.632812 -2.390625,2.449219 -6.609375,2.449219 -4.207031,0 -6.597656,-2.449219 -2.390625,-2.460937 -2.390625,-6.632812 0,-4.207032 2.390625,-6.644532 2.390625,-2.449218 6.597656,-2.449218 4.195312,0 6.597656,2.449218 2.402344,2.4375 2.402344,6.644532 z m -5.964844,4.417968 q 0.65625,-0.796875 0.972656,-1.875 0.316407,-1.089843 0.316407,-2.554687 0,-1.570313 -0.363282,-2.671875 -0.363281,-1.101563 -0.949218,-1.78125 -0.597657,-0.703125 -1.382813,-1.019531 -0.773437,-0.316407 -1.617187,-0.316407 -0.855469,0 -1.617188,0.304688 -0.75,0.304687 -1.382812,1.007812 -0.585938,0.65625 -0.960938,1.816407 -0.363281,1.148437 -0.363281,2.671875 0,1.558593 0.351562,2.660156 0.363282,1.089844 0.949219,1.78125 0.585938,0.691406 1.371094,1.019531 0.785156,0.328125 1.652344,0.328125 0.867187,0 1.652343,-0.328125 0.785157,-0.339844 1.371094,-1.042969 z"
       id="path826" />
    <path
       d="m 105.46875,20.453751 q 0,4.171875 -2.39062,6.632812 -2.39063,2.449219 -6.60938,2.449219 -4.207031,0 -6.597656,-2.449219 -2.390625,-2.460937 -2.390625,-6.632812 0,-4.207032 2.390625,-6.644532 2.390625,-2.449218 6.597656,-2.449218 4.19531,0 6.59766,2.449218 2.40234,2.4375 2.40234,6.644532 z m -5.964844,4.417968 q 0.656254,-0.796875 0.972654,-1.875 0.31641,-1.089843 0.31641,-2.554687 0,-1.570313 -0.36328,-2.671875 -0.36328,-1.101563 -0.949221,-1.78125 -0.597657,-0.703125 -1.382813,-1.019531 -0.773437,-0.316407 -1.617187,-0.316407 -0.855469,0 -1.617188,0.304688 -0.75,0.304687 -1.382812,1.007812 -0.585938,0.65625 -0.960938,1.816407 -0.363281,1.148437 -0.363281,2.671875 0,1.558593 0.351562,2.660156 0.363282,1.089844 0.949219,1.78125 0.585938,0.691406 1.371094,1.019531 0.785156,0.328125 1.652344,0.328125 0.867187,0 1.652343,-0.328125 0.785157,-0.339844 1.371094,-1.042969 z"
       id="path828" />
    <path
       d="m 125.17969,29.172501 h -5.51953 l -5.21485,-6.984375 -1.05468,1.277343 v 5.707032 h -4.5 V 11.723282 h 4.5 v 7.898437 l 6.23437,-7.898437 h 5.21484 l -6.82031,8.074219 z"
       id="path830" />
    <path
       d="m 141.375,23.688126 q 0,2.578125 -2.19141,4.195312 -2.17968,1.605469 -5.92968,1.605469 -2.16797,0 -3.78516,-0.375 -1.60547,-0.386719 -3.01172,-0.972656 v -4.183594 h 0.49219 q 1.39453,1.113281 3.11719,1.710937 1.73437,0.597657 3.32812,0.597657 0.41016,0 1.07813,-0.07031 0.66796,-0.07031 1.08984,-0.234375 0.51562,-0.210937 0.84375,-0.527344 0.33984,-0.316406 0.33984,-0.9375 0,-0.574218 -0.49218,-0.984375 -0.48047,-0.421875 -1.41797,-0.644531 -0.98438,-0.234375 -2.08594,-0.433594 -1.08984,-0.210937 -2.05078,-0.527343 -2.20313,-0.714844 -3.17578,-1.933594 -0.96094,-1.230469 -0.96094,-3.046875 0,-2.4375 2.17969,-3.972656 2.1914,-1.546875 5.625,-1.546875 1.72265,0 3.39843,0.339843 1.6875,0.328125 2.91797,0.832032 v 4.019531 h -0.48047 q -1.05468,-0.84375 -2.58984,-1.40625 -1.52344,-0.574219 -3.11719,-0.574219 -0.5625,0 -1.125,0.08203 -0.55078,0.07031 -1.0664,0.28125 -0.45703,0.175782 -0.78516,0.539063 -0.32812,0.351562 -0.32812,0.808594 0,0.691406 0.52734,1.066406 0.52734,0.363281 1.99219,0.667969 0.96093,0.199218 1.83984,0.386718 0.89063,0.1875 1.91016,0.515625 2.0039,0.65625 2.95312,1.792969 0.96094,1.125 0.96094,2.929688 z"
       id="path832" />
  </g>
</svg>
